<svg width="95" height="48" viewBox="0 0 95 48" fill="none" xmlns="http://www.w3.org/2000/svg">
<g clip-path="url(#clip0_84008_8)">
<path d="M95 0H0V48H95V0Z" fill="white"/>
<path d="M5.56238 26.6299L21.3275 24.3738V23.6219L5.56238 21.3657V5.57227H42.3473V21.3657L26.5822 23.6219V24.3738L42.3473 26.6299V42.4229H5.56238V26.6299Z" fill="#231F20"/>
<path d="M47.9175 6.09131V5.57397H51.4634V6.09131C50.7026 6.09131 50.485 6.15928 50.485 7.02998V14.3251C50.485 15.1823 50.7026 15.2643 51.4634 15.2643V15.7816H47.9175V15.2643C48.6784 15.2643 48.9094 15.1823 48.9094 14.3251V7.02998C48.9094 6.15876 48.6784 6.09131 47.9175 6.09131Z" fill="#231F20"/>
<path d="M52.3113 15.7815V15.2917C52.8002 15.2917 53.0312 15.2917 53.0312 14.5704V10.2963C53.0312 9.30266 53.0178 9.2487 52.2025 9.4796V8.98977L54.5121 7.99609V9.30266C55.0145 8.73084 55.7075 8.05058 56.7404 8.05058C57.6644 8.05058 58.2212 8.56791 58.4522 9.45262C58.9686 8.85382 59.743 8.05058 60.8436 8.05058C62.0256 8.05058 62.773 8.89481 62.773 10.2828V14.5699C62.773 15.2912 63.004 15.2912 63.5339 15.2912V15.781H60.3816V15.2912C61.0607 15.2912 61.2922 15.2912 61.2922 14.5699V10.4868C61.2922 9.45262 60.8436 9.13921 60.2459 9.13921C59.5669 9.13921 59.0499 9.67004 58.6428 10.1189V14.5699C58.6428 15.2912 58.8469 15.2912 59.5669 15.2912V15.781H56.2519V15.2912C56.931 15.2912 57.162 15.2912 57.162 14.5699V10.4868C57.162 9.45262 56.7134 9.13921 56.1157 9.13921C55.4367 9.13921 54.9202 9.67004 54.5126 10.1189V14.5699C54.5126 15.2912 54.7162 15.2912 55.4367 15.2912V15.781H52.3118L52.3113 15.7815Z" fill="#231F20"/>
<path d="M66.1901 15.4822V17.2241C66.1901 17.9453 66.3937 17.9453 67.2089 17.9453V18.4352H63.9888V17.9453C64.4777 17.9453 64.7087 17.9453 64.7087 17.2241V10.2958C64.7087 9.30217 64.6953 9.24821 63.88 9.47911V8.98928L66.1896 7.99561V9.28816C66.6785 8.59389 67.426 8.04957 68.3904 8.04957C69.9665 8.04957 71.0941 9.39713 71.0941 11.7519C71.0941 14.3515 69.7086 15.903 67.6704 15.903C67.0727 15.903 66.6107 15.767 66.1896 15.4811L66.1901 15.4822ZM67.8885 15.2777C68.8395 15.2777 69.5734 14.6514 69.5734 12.6646C69.5734 10.4598 68.9892 9.04428 67.8481 9.04428C67.2504 9.04428 66.6392 9.34368 66.1906 10.1059V13.2229C66.1906 14.366 66.8562 15.2782 67.889 15.2782L67.8885 15.2777Z" fill="#231F20"/>
<path d="M71.8348 14.0398C71.8348 12.7602 72.46 12.0389 73.7233 11.5626C74.3071 11.3447 74.7696 11.2362 75.1632 11.0043C75.6931 10.7049 75.8293 10.392 75.8293 9.97013C75.8293 9.23538 75.4082 8.73154 74.7017 8.73154C73.8865 8.73154 73.6555 9.09891 73.5198 10.0521C73.4788 10.3515 73.3297 10.7464 72.7998 10.7464C72.2699 10.7464 72.0389 10.42 72.0389 9.98414C72.0389 8.97697 73.1121 8.05127 74.824 8.05127C76.2779 8.05127 77.2289 8.77253 77.2289 10.379V14.4217C77.2289 14.7481 77.3646 14.898 77.5956 14.898C77.8401 14.898 77.9892 14.7756 78.1389 14.6121L78.3974 14.9525C78.2342 15.2519 77.854 15.9052 76.9844 15.9052C76.3323 15.9052 75.8568 15.4699 75.7889 14.7621C75.4492 15.3339 74.8649 15.9462 73.8326 15.9462C72.6915 15.9462 71.8354 15.2109 71.8354 14.0408L71.8348 14.0398ZM74.4029 14.979C75.055 14.979 75.4352 14.5841 75.7884 14.0123V11.2767C75.6797 11.4126 75.5983 11.5351 75.3129 11.712C74.9053 11.971 74.8105 11.998 74.2667 12.2974C73.6006 12.6647 73.2608 13.0596 73.2608 13.7404C73.2608 14.5571 73.7907 14.979 74.4024 14.979H74.4029Z" fill="#231F20"/>
<path d="M80.002 11.576C80.002 13.5633 80.8716 14.8154 82.2572 14.8154C83.1128 14.8154 83.6976 14.1211 83.969 13.1684L84.4989 13.3729C84.1866 14.7474 83.3713 15.9315 81.6998 15.9315C79.6757 15.9315 78.5615 14.1756 78.5615 12.3382C78.5615 9.82004 80.2459 8.07812 82.0666 8.07812C83.6153 8.07812 84.5393 8.94934 84.5393 9.92953C84.5393 10.5963 84.227 10.8412 83.8328 10.8412C83.3438 10.8412 83.1807 10.5418 83.0988 10.1744C82.8818 9.20827 82.6643 8.78641 81.849 8.78641C81.0337 8.78641 80.0009 9.39922 80.0009 11.5765L80.002 11.576Z" fill="#231F20"/>
<path d="M87.631 15.9315C86.5578 15.9315 85.8239 15.3597 85.8239 13.8762V9.00383H85.063V8.62245C85.8513 8.37753 86.5578 7.5883 86.7614 6.14526H87.3047V8.21408H89.2067V9.00383H87.3047V13.8082C87.3047 14.6655 87.6036 14.9109 88.0516 14.9109C88.4996 14.9109 88.7856 14.557 88.9622 13.4679L89.4377 13.5498C89.3564 15.1558 88.7856 15.9315 87.631 15.9315Z" fill="#231F20"/>
<path d="M54.2619 27.5988V26.0743C54.2619 25.0806 53.9766 24.8767 53.2022 24.8767V24.3594H56.7077V24.8767C56.11 24.8767 55.879 25.0811 55.879 26.0743V28.538C55.3357 28.8784 54.0719 29.2733 52.9308 29.2733C49.6158 29.2733 47.9988 26.7551 47.9988 24.1964C47.9988 20.6306 50.2405 18.6978 52.5366 18.6978C53.6912 18.6978 54.5204 19.2825 54.724 19.2825C54.8871 19.2825 55.0094 19.2146 55.0498 18.8882H55.634V21.9912H55.0088C54.7644 20.4122 53.6502 19.419 52.3325 19.419C51.0149 19.419 49.6288 20.4127 49.6288 23.1893C49.6288 26.1293 50.716 28.552 53.1204 28.552C53.8947 28.552 54.2614 28.2661 54.2614 27.5993L54.2619 27.5988Z" fill="#231F20"/>
<path d="M57.5095 29.0957V28.6058C58.0394 28.6058 58.2704 28.6058 58.2704 27.8846V20.494C58.2704 19.5413 58.2569 19.4868 57.4008 19.6773V19.1874L59.7513 18.3027V27.8846C59.7513 28.6058 59.9553 28.6058 60.5121 28.6058V29.0957H57.5095Z" fill="#231F20"/>
<path d="M61.2186 25.3126C61.2186 23.0533 62.8217 21.3923 64.5605 21.3923C66.2993 21.3923 67.9029 23.0528 67.9029 25.3126C67.9029 27.5723 66.3133 29.2188 64.5605 29.2188C62.8077 29.2188 61.2186 27.5723 61.2186 25.3126ZM66.3407 26.1293C66.3407 24.088 65.8109 22.0866 64.4113 22.0866C63.5691 22.0866 62.7673 22.5764 62.7673 24.3869C62.7673 26.3742 63.3241 28.5245 64.7371 28.5245C65.6068 28.5245 66.3402 27.9662 66.3402 26.1293H66.3407Z" fill="#231F20"/>
<path d="M70.3145 28.4834L69.3635 29.1777H69.2822V20.4935C69.2822 19.5408 69.2688 19.4864 68.4535 19.6768V19.187L70.7631 18.3022V22.6033C71.2525 21.9091 71.9994 21.3647 72.9639 21.3647C74.54 21.3647 75.6676 22.6853 75.6676 25.0395C75.6676 27.6392 74.2821 29.2182 72.2439 29.2182C71.4561 29.2182 70.8444 28.9732 70.3145 28.4834ZM72.4615 28.5924C73.4124 28.5924 74.1464 27.9391 74.1464 25.9517C74.1464 23.747 73.5621 22.3584 72.4205 22.3584C71.8228 22.3584 71.2116 22.6578 70.7631 23.4201V26.537C70.7631 27.6802 71.4292 28.5924 72.4615 28.5924Z" fill="#231F20"/>
<path d="M76.6596 27.3538C76.6596 26.0742 77.2848 25.3529 78.5481 24.8766C79.1323 24.6586 79.5943 24.5502 79.9885 24.3182C80.5184 24.0188 80.6541 23.706 80.6541 23.2841C80.6541 22.5493 80.233 22.0455 79.5265 22.0455C78.7112 22.0455 78.4802 22.4129 78.344 23.3661C78.3036 23.6655 78.1539 24.0604 77.624 24.0604C77.0941 24.0604 76.8631 23.734 76.8631 23.2981C76.8631 22.2909 77.9363 21.3652 79.6482 21.3652C81.1021 21.3652 82.0531 22.0865 82.0531 23.693V27.7357C82.0531 28.062 82.1888 28.212 82.4198 28.212C82.6643 28.212 82.814 28.0895 82.9631 27.9261L83.2211 28.2665C83.0579 28.5659 82.6777 29.2192 81.8086 29.2192C81.156 29.2192 80.681 28.7838 80.6126 28.0761C80.2729 28.6479 79.6891 29.2602 78.6563 29.2602C77.5147 29.2602 76.6591 28.5249 76.6591 27.3548L76.6596 27.3538ZM79.2271 28.2929C79.8797 28.2929 80.2594 27.8981 80.6126 27.3263V24.5907C80.5039 24.7266 80.4226 24.8491 80.1372 25.026C79.7295 25.2849 79.6347 25.3119 79.0909 25.6113C78.4253 25.9787 78.0855 26.3736 78.0855 27.0544C78.0855 27.8711 78.6154 28.2929 79.2266 28.2929H79.2271Z" fill="#231F20"/>
<path d="M83.8282 29.0957V28.6058C84.358 28.6058 84.5885 28.6058 84.5885 27.8846V20.494C84.5885 19.5413 84.5751 19.4868 83.7189 19.6773V19.1874L86.0694 18.3027V27.8846C86.0694 28.6058 86.2735 28.6058 86.8297 28.6058V29.0957H83.8276H83.8282Z" fill="#231F20"/>
<path d="M47.9175 32.7249V32.2075H51.6675V32.7249C50.7709 32.7249 50.4855 32.7928 50.4855 33.6635V36.8485H54.5613V33.6635C54.5613 32.7923 54.2759 32.7249 53.3794 32.7249V32.2075H57.1294V32.7249C56.3685 32.7249 56.1375 32.7928 56.1375 33.6635V40.9586C56.1375 41.8158 56.3685 41.8978 57.1294 41.8978V42.4151H53.3794V41.8978C54.2759 41.8978 54.5613 41.8158 54.5613 40.9586V37.5697H50.4855V40.9586C50.4855 41.8158 50.7709 41.8978 51.6675 41.8978V42.4151H47.9175V41.8978C48.6784 41.8978 48.9094 41.8158 48.9094 40.9586V33.6635C48.9094 32.7923 48.6784 32.7249 47.9175 32.7249Z" fill="#231F20"/>
<path d="M57.754 38.7951C57.754 36.5083 59.0313 34.7119 60.9876 34.7119C62.7135 34.7119 63.7727 35.964 63.7727 38.1283H59.167C59.2483 40.1016 60.0776 41.3812 61.5175 41.3812C62.4141 41.3812 62.9984 40.8504 63.3516 39.9792L63.8546 40.2106C63.5282 41.3537 62.7539 42.5378 60.9742 42.5378C58.8956 42.5378 57.754 40.8364 57.754 38.7951ZM59.1805 37.4745H62.2644C62.1831 36.1544 61.6123 35.3377 60.7561 35.3377C60.1449 35.3377 59.2887 35.8275 59.18 37.4745H59.1805Z" fill="#231F20"/>
<path d="M64.8734 40.6733C64.8734 39.3937 65.4986 38.6725 66.7619 38.1961C67.3462 37.9782 67.8082 37.8698 68.2024 37.6378C68.7322 37.3384 68.8679 37.0255 68.8679 36.6037C68.8679 35.8689 68.4468 35.3651 67.7403 35.3651C66.9251 35.3651 66.6941 35.7325 66.5584 36.6857C66.5174 36.9851 66.3683 37.3799 65.8384 37.3799C65.3085 37.3799 65.0775 37.0536 65.0775 36.6177C65.0775 35.6105 66.1507 34.6848 67.8626 34.6848C69.3165 34.6848 70.2675 35.4061 70.2675 37.0126V41.0552C70.2675 41.3816 70.4032 41.5316 70.6342 41.5316C70.8787 41.5316 71.0284 41.4091 71.1775 41.2457L71.4355 41.5861C71.2723 41.8855 70.8921 42.5387 70.0225 42.5387C69.3704 42.5387 68.8949 42.1034 68.8265 41.3956C68.4867 41.9674 67.9025 42.5797 66.8702 42.5797C65.7291 42.5797 64.8729 41.8445 64.8729 40.6744L64.8734 40.6733ZM67.441 41.6125C68.0931 41.6125 68.4733 41.2177 68.8265 40.6458V37.9102C68.7177 38.0462 68.6364 38.1686 68.351 38.3456C67.9434 38.6045 67.8486 38.6315 67.3047 38.9309C66.6387 39.2983 66.2994 39.6932 66.2994 40.3739C66.2994 41.1907 66.8293 41.6125 67.4405 41.6125H67.441Z" fill="#231F20"/>
<path d="M72.1099 42.4152V41.9254C72.6397 41.9254 72.8708 41.9254 72.8708 41.2042V33.8136C72.8708 32.8609 72.8573 32.8064 72.0011 32.9969V32.507L74.3516 31.6223V41.2042C74.3516 41.9254 74.5557 41.9254 75.1125 41.9254V42.4152H72.1099Z" fill="#231F20"/>
<path d="M78.3595 42.5651C77.2863 42.5651 76.5529 41.9933 76.5529 40.5098V35.6374H75.792V35.256C76.5798 35.0111 77.2863 34.2218 77.4904 32.7788H78.0337V34.8476H79.9357V35.6374H78.0337V40.4418C78.0337 41.299 78.3326 41.5444 78.7811 41.5444C79.2297 41.5444 79.5151 41.1905 79.6917 40.1014L80.1672 40.1834C80.0854 41.7893 79.5151 42.5651 78.36 42.5651H78.3595Z" fill="#231F20"/>
<path d="M80.9411 42.4152V41.9254C81.43 41.9254 81.661 41.9254 81.661 41.2042V33.8136C81.661 32.8609 81.6476 32.8064 80.8318 32.9969V32.507L83.1414 31.6223V35.9779C83.6712 35.2976 84.4187 34.6848 85.3557 34.6848C86.6599 34.6848 87.3938 35.5156 87.3938 36.8626V41.2042C87.3938 41.9254 87.6243 41.9254 88.1542 41.9254V42.4152H84.9345V41.9254C85.6814 41.9254 85.9125 41.9254 85.9125 41.2042V37.0665C85.9125 36.2093 85.5183 35.7734 84.8118 35.7734C84.1053 35.7734 83.5759 36.1953 83.1409 36.7671V41.2042C83.1409 41.9254 83.3449 41.9254 84.1327 41.9254V42.4152H80.94H80.9411Z" fill="#231F20"/>
</g>
<defs>
<clipPath id="clip0_84008_8">
<rect width="95" height="48" fill="white"/>
</clipPath>
</defs>
</svg>
